HIERARCHY
ROOT Hips
{
	OFFSET 0.000000 71.427986 0.000000
	CHANNELS 6 Xposition Yposition Zposition Xrotation Yrotation Zrotation
	JOINT Pelvis
	{
		OFFSET 0.000000 0.000000 0.000000
		CHANNELS 3 Xrotation Yrotation Zrotation
		JOINT LeftUpLeg
		{
			OFFSET 6.797100 -2.508499 -1.318700
			CHANNELS 3 Xrotation Yrotation Zrotation
			JOINT LeftLeg
			{
				OFFSET 0.069008 -29.241863 0.690200
				CHANNELS 3 Xrotation Yrotation Zrotation
				JOINT LeftFoot
				{
					OFFSET -0.069008 -29.568123 -0.266800
					CHANNELS 3 Xrotation Yrotation Zrotation
					JOINT LeftToeBase
					{
						OFFSET 3.145500 -8.631000 16.059900
						CHANNELS 3 Xrotation Yrotation Zrotation
						End Site
						{
							OFFSET 0.000000 18.501587 0.000000
						}
					}
				}
			}
			JOINT Left_ShortSleeve
			{
				OFFSET 0.265923 -10.480953 1.153800
				CHANNELS 3 Xrotation Yrotation Zrotation
				End Site
				{
					OFFSET 1.725763 19.823879 0.000000
				}
			}
		}
		JOINT RightUpLeg
		{
			OFFSET -6.797100 -2.508499 -1.318700
			CHANNELS 3 Xrotation Yrotation Zrotation
			JOINT RightLeg
			{
				OFFSET -0.082453 -29.241932 0.688000
				CHANNELS 3 Xrotation Yrotation Zrotation
				JOINT RightFoot
				{
					OFFSET 0.082453 -29.568058 -0.264600
					CHANNELS 3 Xrotation Yrotation Zrotation
					JOINT RightToeBase
					{
						OFFSET -3.115300 -8.682800 16.113400
						CHANNELS 3 Xrotation Yrotation Zrotation
						End Site
						{
							OFFSET 0.000000 18.567114 0.000000
						}
					}
				}
			}
			JOINT Right_ShortSleeve
			{
				OFFSET -0.265923 -10.480953 1.153800
				CHANNELS 3 Xrotation Yrotation Zrotation
				End Site
				{
					OFFSET -1.725766 19.823910 0.000000
				}
			}
		}
	}
	JOINT Spine
	{
		OFFSET 0.000000 13.368103 0.470500
		CHANNELS 3 Xrotation Yrotation Zrotation
		JOINT Spine1
		{
			OFFSET 0.147000 13.837402 0.538800
			CHANNELS 3 Xrotation Yrotation Zrotation
			JOINT Spine2
			{
				OFFSET 0.168000 16.242897 -1.435500
				CHANNELS 3 Xrotation Yrotation Zrotation
				JOINT Neck
				{
					OFFSET 0.217200 18.631500 -1.679100
					CHANNELS 3 Xrotation Yrotation Zrotation
					JOINT Head
					{
						OFFSET 0.000000 6.599396 1.385900
						CHANNELS 3 Xrotation Yrotation Zrotation
						JOINT Hat
						{
							OFFSET -0.532200 27.220596 -10.096100
							CHANNELS 3 Xrotation Yrotation Zrotation
							End Site
							{
								OFFSET 0.000000 22.029861 0.000000
							}
						}
						JOINT HairD
						{
							OFFSET -10.777400 17.437393 -1.325900
							CHANNELS 3 Xrotation Yrotation Zrotation
							JOINT HairD1
							{
								OFFSET -3.290299 -11.051193 1.062200
								CHANNELS 3 Xrotation Yrotation Zrotation
								End Site
								{
									OFFSET 0.000000 11.579437 0.000000
								}
							}
						}
						JOINT HairB
						{
							OFFSET -10.777400 17.437393 1.467900
							CHANNELS 3 Xrotation Yrotation Zrotation
							JOINT HairB1
							{
								OFFSET -1.561200 -12.956299 3.590200
								CHANNELS 3 Xrotation Yrotation Zrotation
								End Site
								{
									OFFSET 0.000000 13.534866 0.000000
								}
							}
						}
						JOINT HairA
						{
							OFFSET 9.713100 17.437393 1.467900
							CHANNELS 3 Xrotation Yrotation Zrotation
							JOINT HairA1
							{
								OFFSET 1.561200 -12.956299 3.590200
								CHANNELS 3 Xrotation Yrotation Zrotation
								End Site
								{
									OFFSET 0.000000 13.534866 0.000000
								}
							}
						}
						JOINT HairC
						{
							OFFSET 9.713100 17.437393 -1.325900
							CHANNELS 3 Xrotation Yrotation Zrotation
							JOINT HairC1
							{
								OFFSET 3.290300 -11.051193 1.062200
								CHANNELS 3 Xrotation Yrotation Zrotation
								End Site
								{
									OFFSET 0.000000 11.579437 0.000000
								}
							}
						}
					}
				}
				JOINT LeftShoulder
				{
					OFFSET 5.101800 15.108002 -2.763700
					CHANNELS 3 Xrotation Yrotation Zrotation
					JOINT LeftArm
					{
						OFFSET 9.825497 2.506317 -1.597400
						CHANNELS 3 Xrotation Yrotation Zrotation
						JOINT LeftForeArm
						{
							OFFSET 21.966244 0.000000 0.000000
							CHANNELS 3 Xrotation Yrotation Zrotation
							JOINT LeftHand
							{
								OFFSET 33.879036 0.000000 0.000000
								CHANNELS 3 Xrotation Yrotation Zrotation
								JOINT LeftHandThumb1
								{
									OFFSET 6.715286 -2.359680 3.363841
									CHANNELS 3 Xrotation Yrotation Zrotation
									JOINT LeftHandThumb2
									{
										OFFSET 2.507072 -1.447464 1.447461
										CHANNELS 3 Xrotation Yrotation Zrotation
										JOINT LeftHandThumb3
										{
											OFFSET 2.898338 -1.673355 1.673357
											CHANNELS 3 Xrotation Yrotation Zrotation
											End Site
											{
												OFFSET -0.295959 3.727692 -0.131651
											}
										}
									}
								}
								JOINT LeftHandIndex1
								{
									OFFSET 14.190811 -0.254547 3.840278
									CHANNELS 3 Xrotation Yrotation Zrotation
									JOINT LeftHandIndex2
									{
										OFFSET 3.551727 0.000000 -0.000000
										CHANNELS 3 Xrotation Yrotation Zrotation
										JOINT LeftHandIndex3
										{
											OFFSET 2.894196 0.000000 0.000000
											CHANNELS 3 Xrotation Yrotation Zrotation
											End Site
											{
												OFFSET -1.000603 2.690872 0.366626
											}
										}
									}
								}
								JOINT LeftHandMiddle1
								{
									OFFSET 13.776489 0.000000 0.000000
									CHANNELS 3 Xrotation Yrotation Zrotation
									JOINT LeftHandMiddle2
									{
										OFFSET 3.438232 0.000000 0.000000
										CHANNELS 3 Xrotation Yrotation Zrotation
										JOINT LeftHandMiddle3
										{
											OFFSET 3.691551 0.000000 0.000000
											CHANNELS 3 Xrotation Yrotation Zrotation
											End Site
											{
												OFFSET -1.082298 3.499527 0.457670
											}
										}
									}
								}
								JOINT LeftHandRing1
								{
									OFFSET 13.966164 -0.268127 -3.067488
									CHANNELS 3 Xrotation Yrotation Zrotation
									JOINT LeftHandRing2
									{
										OFFSET 3.162567 0.000000 0.000000
										CHANNELS 3 Xrotation Yrotation Zrotation
										JOINT LeftHandRing3
										{
											OFFSET 3.324348 0.000000 0.000000
											CHANNELS 3 Xrotation Yrotation Zrotation
											End Site
											{
												OFFSET -0.861900 3.184998 0.405154
											}
										}
									}
								}
								JOINT LeftHandPinky1
								{
									OFFSET 13.131393 -0.168503 -5.746925
									CHANNELS 3 Xrotation Yrotation Zrotation
									JOINT LeftHandPinky2
									{
										OFFSET 2.849182 0.000000 0.000000
										CHANNELS 3 Xrotation Yrotation Zrotation
										JOINT LeftHandPinky3
										{
											OFFSET 2.805038 0.000000 0.000000
											CHANNELS 3 Xrotation Yrotation Zrotation
											End Site
											{
												OFFSET -0.882500 2.642609 0.325652
											}
										}
									}
								}
							}
							JOINT Left_Sleeve
							{
								OFFSET 6.592125 -0.646545 0.805568
								CHANNELS 3 Xrotation Yrotation Zrotation
								End Site
								{
									OFFSET -0.000179 20.275787 -0.000000
								}
							}
						}
					}
				}
				JOINT RightShoulder
				{
					OFFSET -5.731700 15.108002 -2.763700
					CHANNELS 3 Xrotation Yrotation Zrotation
					JOINT RightArm
					{
						OFFSET -9.825497 2.506317 -1.597400
						CHANNELS 3 Xrotation Yrotation Zrotation
						JOINT RightForeArm
						{
							OFFSET -21.966242 0.000000 0.000000
							CHANNELS 3 Xrotation Yrotation Zrotation
							JOINT RightHand
							{
								OFFSET -33.879032 0.000000 0.000000
								CHANNELS 3 Xrotation Yrotation Zrotation
								JOINT RightHandThumb1
								{
									OFFSET -6.715286 -2.359680 3.363841
									CHANNELS 3 Xrotation Yrotation Zrotation
									JOINT RightHandThumb2
									{
										OFFSET -2.507072 -1.447464 1.447461
										CHANNELS 3 Xrotation Yrotation Zrotation
										JOINT RightHandThumb3
										{
											OFFSET -2.898338 -1.673355 1.673357
											CHANNELS 3 Xrotation Yrotation Zrotation
											End Site
											{
												OFFSET 0.295959 3.727692 -0.131651
											}
										}
									}
								}
								JOINT RightHandIndex1
								{
									OFFSET -14.190811 -0.254547 3.840278
									CHANNELS 3 Xrotation Yrotation Zrotation
									JOINT RightHandIndex2
									{
										OFFSET -3.551727 0.000000 -0.000000
										CHANNELS 3 Xrotation Yrotation Zrotation
										JOINT RightHandIndex3
										{
											OFFSET -2.894196 0.000000 0.000000
											CHANNELS 3 Xrotation Yrotation Zrotation
											End Site
											{
												OFFSET 1.000603 2.690872 0.366626
											}
										}
									}
								}
								JOINT RightHandMiddle1
								{
									OFFSET -13.776489 0.000000 0.000000
									CHANNELS 3 Xrotation Yrotation Zrotation
									JOINT RightHandMiddle2
									{
										OFFSET -3.438232 0.000000 0.000000
										CHANNELS 3 Xrotation Yrotation Zrotation
										JOINT RightHandMiddle3
										{
											OFFSET -3.691551 0.000000 0.000000
											CHANNELS 3 Xrotation Yrotation Zrotation
											End Site
											{
												OFFSET 1.082298 3.499527 0.457670
											}
										}
									}
								}
								JOINT RightHandRing1
								{
									OFFSET -13.966164 -0.268127 -3.067488
									CHANNELS 3 Xrotation Yrotation Zrotation
									JOINT RightHandRing2
									{
										OFFSET -3.162567 0.000000 0.000000
										CHANNELS 3 Xrotation Yrotation Zrotation
										JOINT RightHandRing3
										{
											OFFSET -3.324348 0.000000 0.000000
											CHANNELS 3 Xrotation Yrotation Zrotation
											End Site
											{
												OFFSET 0.861900 3.184998 0.405154
											}
										}
									}
								}
								JOINT RightHandPinky1
								{
									OFFSET -13.131393 -0.168503 -5.746925
									CHANNELS 3 Xrotation Yrotation Zrotation
									JOINT RightHandPinky2
									{
										OFFSET -2.849182 0.000000 0.000000
										CHANNELS 3 Xrotation Yrotation Zrotation
										JOINT RightHandPinky3
										{
											OFFSET -2.805038 0.000000 0.000000
											CHANNELS 3 Xrotation Yrotation Zrotation
											End Site
											{
												OFFSET 0.882500 2.642609 0.325652
											}
										}
									}
								}
							}
							JOINT Right_Sleeve
							{
								OFFSET -6.592125 -0.646545 0.805568
								CHANNELS 3 Xrotation Yrotation Zrotation
								End Site
								{
									OFFSET 0.000179 20.275787 -0.000000
								}
							}
						}
					}
				}
				JOINT Bind_Right_JacketString
				{
					OFFSET -3.534800 11.969597 7.200700
					CHANNELS 3 Xrotation Yrotation Zrotation
					JOINT Bind_Right_JacketString1
					{
						OFFSET -0.319900 -6.102600 2.794100
						CHANNELS 3 Xrotation Yrotation Zrotation
						End Site
						{
							OFFSET 0.000000 6.719452 0.000000
						}
					}
				}
				JOINT Bind_Left_JacketString
				{
					OFFSET 2.904800 11.969597 7.200700
					CHANNELS 3 Xrotation Yrotation Zrotation
					JOINT Bind_Left_JacketString1
					{
						OFFSET 0.364800 -5.904503 3.186800
						CHANNELS 3 Xrotation Yrotation Zrotation
						End Site
						{
							OFFSET 0.000000 6.719513 0.000000
						}
					}
				}
				JOINT HairE
				{
					OFFSET 5.915200 17.612701 -11.592200
					CHANNELS 3 Xrotation Yrotation Zrotation
					JOINT HairE1
					{
						OFFSET 0.289200 -7.171898 -1.284500
						CHANNELS 3 Xrotation Yrotation Zrotation
						End Site
						{
							OFFSET 0.000000 7.291756 0.000000
						}
					}
				}
				JOINT HairF
				{
					OFFSET -0.864800 17.612701 -11.592200
					CHANNELS 3 Xrotation Yrotation Zrotation
					JOINT HairF1
					{
						OFFSET 0.000000 -14.087097 -2.127501
						CHANNELS 3 Xrotation Yrotation Zrotation
						End Site
						{
							OFFSET 0.000000 14.246841 0.000000
						}
					}
				}
				JOINT HairG
				{
					OFFSET -8.087700 17.612701 -11.592200
					CHANNELS 3 Xrotation Yrotation Zrotation
					JOINT HairG1
					{
						OFFSET -0.293600 -6.081398 -0.910100
						CHANNELS 3 Xrotation Yrotation Zrotation
						End Site
						{
							OFFSET 0.000000 6.156120 0.000000
						}
					}
				}
			}
		}
	}
	JOINT Pouch
	{
		OFFSET 0.000000 4.394501 10.847300
		CHANNELS 3 Xrotation Yrotation Zrotation
		End Site
		{
			OFFSET 0.000000 21.880577 0.000000
		}
	}
	JOINT Bag
	{
		OFFSET -13.229000 4.813004 -0.593300
		CHANNELS 3 Xrotation Yrotation Zrotation
		End Site
		{
			OFFSET 0.000000 21.880577 0.000000
		}
	}
	JOINT OccupyGuyFacialAnim_Joint
	{
		OFFSET 1.000000 -70.206398 -1.655000
		CHANNELS 3 Xrotation Yrotation Zrotation
		End Site
		{
			OFFSET 0.000000 21.880577 0.000000
		}
	}
}
MOTION
Frames: 4
Frame Time: 0.016667
-2.300003 68.742035 -3.766605 -2.956150 -1.460057 2.058821 -0.000000 -0.000000 -0.000000 -16.100784 6.836253 1.159910 30.785507 7.535311 -1.022226 -11.364550 0.559609 -1.488037 0.000000 -0.000000 -0.000000 0.000002 -0.000000 0.000000 -4.822680 -17.490475 -12.580869 27.381257 0.021513 -5.132396 -19.626846 -1.786716 13.497026 -0.000000 0.000001 -0.000000 0.000000 -0.000002 0.000000 8.849387 2.916987 -5.039269 1.276165 0.577129 -0.622580 1.278388 0.567047 -0.629523 -6.061337 0.449845 0.950596 5.338945 4.042163 -5.183569 -0.000000 0.000001 0.000000 -0.000000 0.000001 0.000000 -0.000000 0.000001 0.000000 -0.000000 0.000001 0.000000 -0.000000 0.000001 -0.000000 -0.000000 0.000001 0.000000 -0.000000 0.000001 -0.000000 -0.000000 0.000001 0.000000 -0.000000 0.000001 0.000000 -0.302512 5.872713 -1.999016 -14.720687 -10.177257 -69.280986 -0.000005 -33.970219 -0.000007 11.041595 5.640847 -12.077304 -1.528267 3.687856 6.128892 3.939057 7.948712 0.746823 -0.000001 -0.000003 0.000002 0.033130 0.675964 -5.610581 0.032964 0.674430 -5.597743 0.000000 0.000001 -0.000003 0.069850 0.980273 -8.151118 0.078703 1.040172 -8.653173 0.000001 0.000006 -0.000004 0.141441 1.391190 -11.609549 0.158265 1.470745 -12.283640 0.000000 0.000000 0.000002 1.260515 5.698232 -14.444257 0.229467 -2.281942 -15.368559 -0.000003 -0.000001 -0.000001 0.000000 -0.000001 0.000000 4.545750 12.839002 -7.835332 -1.611813 -3.214996 72.442516 -0.000009 36.829708 0.000033 4.215991 0.157732 15.844613 -1.849259 -3.581787 -6.586135 4.637200 -8.634120 -0.225394 0.000002 0.000000 -0.000001 0.097321 -1.161573 9.577304 0.097308 -1.161577 9.577323 -0.000001 0.000001 -0.000001 0.734457 -4.504870 10.622726 0.142208 -1.401924 11.584702 0.000004 0.000001 0.000001 1.799559 -8.681472 12.425418 0.204360 -1.676606 13.897300 -0.000000 0.000001 -0.000001 3.082000 -12.378823 14.479185 0.252505 -1.860365 15.457621 -0.000000 -0.000001 -0.000001 0.000003 -0.000003 0.000003 0.000000 0.000000 -0.000000 0.000000 0.000000 -0.000000 0.000000 0.000000 -0.000000 0.000000 0.000000 -0.000000 0.000000 0.000000 -0.000000 0.000000 0.000000 -0.000000 0.000000 0.000000 -0.000000 0.000000 0.000000 -0.000000 0.000000 0.000000 -0.000000 0.000000 0.000000 -0.000000 -0.000000 -0.000000 -0.000000 -0.000000 -0.000000 -0.000000 -0.000000 -0.000000 -0.000000 
-2.330426 68.737175 -3.861396 -2.860000 -1.532094 2.041106 0.000000 -0.000000 -0.000000 -16.284694 6.861505 1.222604 30.780753 7.806660 -1.056456 -11.259283 0.576362 -1.519626 0.000000 0.000000 -0.000000 0.000000 -0.000000 -0.000000 -5.019810 -17.381199 -12.526020 27.438306 0.174980 -5.088500 -19.663835 -1.927878 13.397135 0.000000 -0.000002 0.000000 -0.000000 -0.000001 -0.000000 8.971736 2.811670 -5.151984 1.296461 0.561209 -0.636463 1.298514 0.551111 -0.643278 -6.130197 0.380287 1.181956 5.083281 4.090374 -5.065638 0.000001 0.000001 0.000000 0.000001 0.000001 0.000000 0.000001 0.000001 0.000001 0.000001 0.000001 0.000001 0.000001 0.000001 0.000000 0.000001 0.000001 0.000001 0.000001 0.000001 0.000000 0.000001 0.000001 0.000000 0.000001 0.000001 0.000000 -0.303984 5.822776 -1.781758 -14.889686 -10.799711 -69.024423 -0.000008 -34.489904 -0.000026 10.925307 5.810038 -12.083939 -1.528124 3.687837 6.128761 3.939061 7.948710 0.746821 0.000000 0.000001 0.000000 0.033133 0.675971 -5.610583 0.032962 0.674435 -5.597744 -0.000000 -0.000001 -0.000000 0.069850 0.980276 -8.151119 0.078702 1.040176 -8.653173 -0.000000 0.000001 -0.000001 0.141445 1.391195 -11.609549 0.158264 1.470743 -12.283638 -0.000001 0.000001 -0.000001 1.260516 5.698235 -14.444257 0.229471 -2.281939 -15.368559 -0.000003 -0.000003 0.000002 0.000001 -0.000005 0.000001 4.504493 12.696251 -7.406779 -1.846144 -3.449431 72.003786 0.000010 37.086571 -0.000015 4.778064 -0.150863 16.413877 -1.849266 -3.581790 -6.586132 4.637196 -8.634119 -0.225400 0.000001 0.000000 -0.000001 0.097316 -1.161577 9.577304 0.097306 -1.161571 9.577323 -0.000004 0.000001 -0.000001 0.734452 -4.504874 10.622731 0.142211 -1.401921 11.584702 0.000004 0.000001 -0.000001 1.799553 -8.681474 12.425420 0.204347 -1.676606 13.897304 0.000000 0.000000 -0.000001 3.081997 -12.378823 14.479188 0.252508 -1.860363 15.457620 -0.000001 -0.000001 0.000000 -0.000001 0.000003 -0.000001 -0.000001 -0.000000 -0.000000 -0.000001 0.000000 0.000000 -0.000001 -0.000000 -0.000000 -0.000001 -0.000000 -0.000000 -0.000001 -0.000000 -0.000000 -0.000001 0.000000 -0.000000 -0.000001 -0.000000 -0.000000 -0.000001 -0.000000 -0.000000 -0.000001 -0.000000 -0.000000 -0.000001 0.000000 -0.000000 0.000000 -0.000000 -0.000000 0.000000 -0.000000 -0.000000 0.000000 -0.000000 -0.000000 
-2.362938 68.733406 -3.963353 -2.751455 -1.598401 2.017028 -0.000000 0.000000 0.000000 -16.486627 6.867953 1.281398 30.765986 8.111318 -1.074378 -11.138338 0.588085 -1.565271 -0.000000 0.000000 -0.000000 0.000001 -0.000000 0.000000 -5.239618 -17.272626 -12.469835 27.507597 0.297892 -5.038756 -19.691551 -2.043967 13.310056 -0.000000 0.000001 0.000000 -0.000000 -0.000002 -0.000001 9.101780 2.683888 -5.239732 1.319394 0.540907 -0.647529 1.321268 0.530790 -0.654146 -6.190338 0.319002 1.390179 4.811082 4.139859 -4.959370 -0.000001 -0.000000 -0.000000 -0.000001 -0.000000 -0.000000 -0.000001 -0.000000 0.000000 -0.000001 -0.000000 0.000000 -0.000001 0.000000 -0.000000 -0.000001 -0.000000 0.000000 -0.000001 0.000000 -0.000000 -0.000001 -0.000000 -0.000000 -0.000001 -0.000000 -0.000000 -0.303281 5.756982 -1.555982 -15.042477 -11.360658 -68.812626 0.000007 -34.989215 -0.000000 10.923344 5.925807 -12.107328 -1.527929 3.687832 6.128541 3.939056 7.948713 0.746823 -0.000000 0.000001 0.000001 0.033127 0.675969 -5.610579 0.032966 0.674433 -5.597746 -0.000001 0.000000 -0.000002 0.069849 0.980273 -8.151124 0.078700 1.040174 -8.653173 0.000001 0.000001 0.000001 0.141442 1.391195 -11.609549 0.158266 1.470746 -12.283638 0.000000 0.000001 0.000003 1.260514 5.698241 -14.444262 0.229468 -2.281941 -15.368557 -0.000000 0.000003 0.000003 0.000001 0.000001 -0.000002 4.474240 12.585511 -7.073512 -2.036077 -3.701652 71.662229 0.000008 37.330177 -0.000014 5.206089 -0.406970 16.986156 -1.849259 -3.581789 -6.586133 4.637198 -8.634118 -0.225394 0.000002 0.000002 -0.000000 0.097318 -1.161574 9.577305 0.097309 -1.161575 9.577325 -0.000002 0.000000 -0.000001 0.734459 -4.504874 10.622730 0.142214 -1.401921 11.584705 0.000002 0.000000 0.000001 1.799559 -8.681472 12.425414 0.204354 -1.676607 13.897301 -0.000003 0.000001 -0.000000 3.082002 -12.378820 14.479187 0.252511 -1.860365 15.457623 0.000002 0.000000 -0.000001 0.000004 0.000001 0.000000 -0.000001 0.000000 0.000000 0.000000 0.000000 0.000000 -0.000001 0.000000 -0.000000 -0.000001 0.000000 -0.000000 -0.000001 0.000000 0.000000 0.000000 0.000000 -0.000000 -0.000001 0.000000 -0.000000 -0.000001 0.000000 -0.000000 -0.000001 0.000000 0.000000 0.000000 0.000000 -0.000000 -0.000000 0.000000 0.000000 -0.000000 0.000000 0.000000 -0.000000 0.000000 0.000000 
-2.402656 68.733421 -4.084692 -2.599661 -1.632954 1.977227 -0.000000 -0.000000 0.000000 -16.744762 6.811566 1.317230 30.714278 8.539040 -1.034944 -10.968141 0.555455 -1.661816 -0.000000 0.000000 -0.000000 -0.000000 -0.000000 -0.000000 -5.528754 -17.172349 -12.414098 27.611745 0.331206 -4.962950 -19.693688 -2.094584 13.251451 0.000000 0.000001 0.000000 0.000000 -0.000002 -0.000000 9.245166 2.487651 -5.261957 1.348061 0.507319 -0.651501 1.349749 0.497194 -0.657720 -6.227112 0.278792 1.541825 4.498673 4.198866 -4.883208 0.000001 0.000000 0.000000 0.000001 0.000000 0.000000 0.000001 0.000000 0.000000 0.000001 0.000000 0.000001 0.000000 0.000000 0.000001 0.000001 0.000000 0.000001 0.000000 0.000000 0.000001 0.000001 0.000000 0.000000 0.000001 0.000000 0.000000 -0.297161 5.645768 -1.293702 -15.168831 -11.755809 -68.723833 0.000010 -35.439734 0.000023 11.246031 5.895237 -12.186527 -1.527503 3.687785 6.128146 3.939059 7.948708 0.746824 0.000001 0.000001 0.000002 0.033129 0.675971 -5.610580 0.032962 0.674435 -5.597738 -0.000002 0.000004 -0.000003 0.069846 0.980271 -8.151120 0.078699 1.040172 -8.653175 0.000002 -0.000004 0.000000 0.141439 1.391196 -11.609549 0.158265 1.470748 -12.283639 0.000001 -0.000000 0.000003 1.260520 5.698236 -14.444257 0.229467 -2.281938 -15.368559 -0.000002 0.000001 0.000001 0.000002 -0.000002 0.000002 4.469011 12.563350 -6.980661 -2.107496 -4.025330 71.586741 0.000004 37.565293 0.000013 5.445485 -0.606402 17.768281 -1.849262 -3.581789 -6.586137 4.637198 -8.634119 -0.225396 0.000002 -0.000001 -0.000000 0.097322 -1.161575 9.577305 0.097304 -1.161571 9.577327 -0.000006 0.000003 -0.000001 0.734455 -4.504873 10.622730 0.142205 -1.401924 11.584704 0.000003 -0.000001 0.000001 1.799560 -8.681472 12.425414 0.204359 -1.676608 13.897301 0.000002 -0.000001 -0.000000 3.082005 -12.378821 14.479183 0.252506 -1.860364 15.457620 -0.000002 0.000001 0.000001 0.000002 0.000002 -0.000002 0.000001 -0.000000 0.000001 0.000001 0.000000 0.000001 0.000001 -0.000000 0.000000 0.000001 -0.000000 0.000000 0.000001 -0.000000 0.000001 0.000001 0.000000 0.000001 0.000001 -0.000000 0.000000 0.000001 -0.000000 0.000000 0.000001 -0.000000 0.000001 0.000001 0.000000 0.000001 -0.000000 -0.000000 0.000000 -0.000000 -0.000000 0.000000 -0.000000 -0.000000 0.000000 
